<?xml version="1.0" encoding="UTF-8" standalone="no"?>
<svg
   xmlns:dc="http://purl.org/dc/elements/1.1/"
   xmlns:cc="http://creativecommons.org/ns#"
   xmlns:rdf="http://www.w3.org/1999/02/22-rdf-syntax-ns#"
   xmlns:svg="http://www.w3.org/2000/svg"
   xmlns="http://www.w3.org/2000/svg"
   xmlns:sodipodi="http://sodipodi.sourceforge.net/DTD/sodipodi-0.dtd"
   xmlns:inkscape="http://www.inkscape.org/namespaces/inkscape"
   sodipodi:docname="logo.svg"
   height="48"
   width="48"
   inkscape:version="1.0 (4035a4f, 2020-05-01)"
   version="1.1"
   id="svg3055">
  <metadata
     id="metadata3061">
    <rdf:RDF>
      <cc:Work
         rdf:about="">
        <dc:format>image/svg+xml</dc:format>
        <dc:type
           rdf:resource="http://purl.org/dc/dcmitype/StillImage" />
        <dc:title />
      </cc:Work>
    </rdf:RDF>
  </metadata>
  <defs
     id="defs3059" />
  <sodipodi:namedview
     inkscape:document-rotation="0"
     inkscape:guide-bbox="true"
     showguides="true"
     inkscape:current-layer="svg3055"
     inkscape:window-maximized="1"
     inkscape:window-y="25"
     inkscape:window-x="0"
     inkscape:cy="28.451681"
     inkscape:cx="34.250161"
     inkscape:zoom="13.366937"
     showgrid="false"
     id="namedview3057"
     inkscape:window-height="1055"
     inkscape:window-width="1920"
     inkscape:pageshadow="2"
     inkscape:pageopacity="0"
     guidetolerance="10"
     gridtolerance="10"
     objecttolerance="10"
     borderopacity="1"
     bordercolor="#666666"
     pagecolor="#ffffff">
    <sodipodi:guide
       id="guide3102"
       position="290.91549,547.60563"
       orientation="0,1" />
  </sodipodi:namedview>
  <rect
     y="-0.35031354"
     x="-0.21160005"
     height="48.456116"
     width="48.456112"
     id="rect4135"
     style="fill:#103d74;fill-opacity:1;stroke:none;stroke-width:0.30000001;stroke-miterlimit:4;stroke-dasharray:none;stroke-opacity:1" />
  <path
     inkscape:connector-curvature="0"
     id="path3185"
     d="m 20.060486,3.0637838 c -0.05508,0.951983 0.0054,1.9164294 -0.158727,2.863818 -0.07319,1.1753639 -0.458438,2.2885594 -0.733656,3.423819 -0.303784,1.5252632 -0.673037,3.0787022 -0.515131,4.6433312 0.311333,1.771321 1.187979,3.437328 2.426094,4.738417 1.262392,1.303534 2.079122,2.94951 2.768482,4.607629 0.17345,0.185729 0.125179,-0.585525 0.180161,-0.700878 0.06557,-1.53388 0.669438,-2.957683 1.110496,-4.405616 0.362809,-1.246519 0.900568,-2.453578 1.076132,-3.746359 0.0473,-0.894311 0.10534,-1.833369 -0.162978,-2.697836 C 25.721163,10.64952 24.971682,9.6999581 24.252245,8.7788245 23.491413,7.8901302 22.646068,7.0673263 21.941339,6.1275306 21.154119,5.2112021 20.66431,4.0991658 20.060486,3.0637838 Z m 9.884113,2.9312115 c -0.228928,-0.00731 -0.460531,0.046534 -0.689869,0.1617283 -0.477202,0.2396944 -0.792125,0.8509 -0.71072,1.3794039 0.07763,0.5039912 0.502492,0.983134 0.987717,1.1139987 0.620589,0.167374 1.254723,-0.1139317 1.568407,-0.6957912 0.159478,-0.2958085 0.186313,-0.8133439 0.05697,-1.0984847 C 31.012565,6.5372115 30.846705,6.335334 30.618542,6.2002621 30.399792,6.0707661 30.173532,6.002302 29.944605,5.9949953 Z m -17.48518,3.20479 c -0.02756,4.274e-4 -0.05474,0.00201 -0.08141,0.00477 -0.891297,0.091995 -1.443092,0.9532 -1.166545,1.820636 0.110858,0.347725 0.560898,0.760982 0.925246,0.849679 0.596954,0.145331 1.260855,-0.146087 1.53204,-0.67252 0.224813,-0.436416 0.195704,-1.036927 -0.06932,-1.4299496 -0.223076,-0.3308322 -0.72654,-0.5791218 -1.140017,-0.5725927 z m 27.702592,0.9450977 c -0.715081,0.390504 -1.390522,0.868845 -2.176452,1.118336 -1.478774,0.806368 -3.176761,1.024783 -4.74417,1.601771 -0.822323,0.355996 -1.714702,0.568214 -2.479223,1.043602 -1.163848,0.598958 -1.978719,1.67026 -2.677985,2.744461 -0.481452,0.7287 -0.741652,1.564589 -1.035262,2.3803 -0.495831,1.721032 -1.538602,3.198968 -2.590157,4.620478 l 0.0156,0.02411 c 0.726425,-0.255656 1.416565,-0.689377 2.179789,-0.879872 1.834553,-0.492082 3.720442,-0.77489 5.560235,-1.242866 1.008303,-0.212021 1.946548,-0.679772 2.763563,-1.3 1.250908,-0.868147 1.80472,-2.348559 2.385388,-3.688223 0.327338,-1.05398 0.638105,-2.114475 1.053111,-3.138314 0.389238,-1.191165 1.159564,-2.190247 1.745566,-3.283778 z m -27.187213,5.804038 c -0.726194,0.0039 -1.442932,0.121419 -2.164022,0.212191 -1.1558088,0.249486 -2.3027979,0.536689 -3.4778693,0.690953 -1.1470669,0.174595 -2.3403064,0.04698 -3.4756167,0.09142 0.3261791,0.23238 0.70206,0.388843 1.0430194,0.599787 0.6614439,0.421236 1.2867239,0.902786 1.9071259,1.378904 0.5435076,0.349933 0.9729718,0.849238 1.4193563,1.32302 0.4774328,0.411462 0.8935186,0.903787 1.3980046,1.286988 0.8039528,0.635964 1.5486398,1.381774 2.4819748,1.835812 0.342075,0.216916 0.698934,0.386865 1.101238,0.454324 0.665093,0.195249 1.341008,0.259333 2.024899,0.318369 0.281481,0.03004 0.571113,0.03004 0.852597,0 0.919036,-3.8e-5 1.80152,-0.270427 2.699921,-0.426299 0.75004,-0.0992 1.51706,-0.192881 2.270285,-0.10693 0.813636,-0.02807 1.614587,0.169238 2.419003,0.14755 -0.438615,-0.262081 -0.833878,-0.588868 -1.258629,-0.872867 -0.620806,-0.510087 -1.217302,-1.082297 -1.725465,-1.713369 -0.735934,-0.812819 -1.472989,-1.619839 -2.210314,-2.438018 -0.479684,-0.484698 -0.879426,-1.069364 -1.46548,-1.431118 -0.539234,-0.433985 -1.163068,-0.72176 -1.784934,-1.014994 -0.550647,-0.193286 -1.168104,-0.341815 -1.74323,-0.330045 -0.104169,-0.0045 -0.208121,-0.0063 -0.311864,-0.0055 z m 28.536172,3.517404 c -0.05312,1.1e-5 -0.116493,0.0027 -0.196842,0.0069 -0.316905,0.01655 -0.376757,0.03334 -0.607295,0.17032 -0.26832,0.159422 -0.449402,0.36684 -0.58811,0.67352 -0.142726,0.315548 -0.09991,0.930951 0.08165,1.173385 0.29469,0.393497 0.554303,0.579097 0.912234,0.652085 0.322931,0.06585 0.707717,-0.01089 0.995894,-0.198678 0.280396,-0.182711 0.33228,-0.239681 0.483683,-0.53064 0.102855,-0.19767 0.116186,-0.265451 0.116186,-0.590782 0,-0.339256 -0.01089,-0.388924 -0.141376,-0.645995 -0.152311,-0.300076 -0.28418,-0.419679 -0.672769,-0.609796 -0.156659,-0.07664 -0.223884,-0.100286 -0.383261,-0.100256 z m -9.593352,4.435228 c -0.03776,-4.28e-4 -0.07544,-3.42e-4 -0.113101,1.7e-4 -0.652885,0.0088 -1.293268,0.150837 -1.933318,0.288676 -1.635613,0.404942 -3.348336,0.300499 -5.008657,0.09675 -0.698022,-0.166094 -0.212863,0.143448 0.107847,0.337302 0.673785,0.424629 1.259675,0.949039 1.816629,1.516944 1.183388,1.279083 2.314585,2.611263 3.524159,3.868802 0.473436,0.583827 1.126166,1.000385 1.781431,1.34921 0.665942,0.37656 1.377346,0.620462 2.137251,0.713222 0.625571,0.0022 1.263639,0.0205 1.883689,-0.0694 1.314718,-0.09492 2.562174,-0.554171 3.86655,-0.715141 1.183948,-0.237718 2.390703,-0.180033 3.590635,-0.184999 0.986643,0.09365 -0.196093,-0.371169 -0.498696,-0.576599 -0.791635,-0.512453 -1.54663,-1.09284 -2.299812,-1.670329 -1.079008,-1.0301 -2.098404,-2.131953 -3.29387,-3.025296 -0.620269,-0.566861 -1.326232,-1.012206 -2.075696,-1.391081 -1.000983,-0.365543 -2.075676,-0.535854 -3.143985,-0.521217 -0.114113,-0.01037 -0.227798,-0.01581 -0.341056,-0.01701 z m -8.50863,0.522218 c -0.312425,0.0034 -0.89954,0.424636 -1.309007,0.551494 -1.974802,0.719589 -4.089435,0.91949 -6.11173,1.466482 -0.878367,0.139422 -1.693143,0.505387 -2.449362,0.962696 -0.612596,0.356955 -1.152915,0.810051 -1.580835,1.376902 -0.586495,0.817714 -0.969271,1.769161 -1.363639,2.691497 -0.381809,1.216008 -0.742142,2.445752 -1.2537074,3.615742 -0.3821886,1.004166 -1.053661,1.848841 -1.5466372,2.797092 l 0.046458,-0.0092 0.1402091,-0.07357 c 1.0468808,-0.690866 2.2231847,-1.138213 3.3708567,-1.627125 1.841046,-0.494488 3.676815,-1.033185 5.424446,-1.803282 0.515425,-0.337746 1.146139,-0.551883 1.55648,-1.039351 1.191034,-1.175864 2.068715,-2.648984 2.538525,-4.25565 0.488737,-1.730398 1.544686,-3.216934 2.596663,-4.648584 -0.01826,-0.0037 -0.03789,-0.0053 -0.05872,-0.005 z m 0.608129,0.131951 c -0.0842,0.927709 -0.165163,1.858466 -0.404029,2.762562 -0.498952,1.631144 -1.068119,3.239367 -1.55965,4.873785 -0.283475,0.7529 -0.394946,1.546539 -0.37175,2.352195 -0.03832,0.944345 0.162233,1.885389 0.628648,2.710596 0.798801,1.548138 2.082153,2.743881 3.195198,4.054803 0.972726,1.044701 1.633697,2.313347 2.311739,3.555771 l 0.03278,0.03787 c 0.0869,-0.738197 0.04057,-1.48969 0.123862,-2.230249 0.131501,-1.486254 0.510757,-2.927977 0.902225,-4.362495 0.178763,-1.102574 0.443095,-2.203669 0.473259,-3.32248 0.03176,-1.233603 -0.373451,-2.420686 -0.937592,-3.502391 -0.417242,-0.863432 -1.018855,-1.604211 -1.66558,-2.304062 -1.259215,-1.307305 -2.011064,-2.985422 -2.729113,-4.625897 z M 6.4303475,25.892671 C 6.2826209,25.895547 6.20564,25.926165 5.9929559,26.028459 5.6855901,26.176296 5.5085397,26.341417 5.385411,26.59505 5.2035806,26.969602 5.1856741,27.040412 5.2049988,27.307773 5.24719,27.891493 5.6747827,28.415974 6.2214101,28.554557 6.845856,28.71287 7.4865295,28.408209 7.7781391,27.81431 7.8797799,27.607307 7.895503,27.529035 7.895161,27.230205 7.8947343,26.824526 7.8198582,26.627404 7.5519372,26.326059 7.3109658,26.055029 7.0071914,25.916882 6.6092586,25.897342 6.5366416,25.893747 6.47959,25.891795 6.4303475,25.89272 Z M 35.488987,36.125514 c -0.162298,-0.0063 -0.577702,0.122048 -0.777697,0.244469 -0.342576,0.209697 -0.562977,0.609799 -0.591447,1.073713 -0.0194,0.31609 -0.01364,0.34624 0.115353,0.602957 0.165248,0.328842 0.474129,0.625119 0.752258,0.721481 0.312677,0.108331 0.836305,0.07191 1.110329,-0.07724 0.43127,-0.234724 0.693092,-0.654465 0.704548,-1.129597 0.0088,-0.365903 -0.06245,-0.609448 -0.251809,-0.860437 -0.240475,-0.318732 -0.515333,-0.471035 -1.032592,-0.572263 -0.0084,-0.0016 -0.01813,-0.0028 -0.02893,-0.003 z m -17.417202,3.227811 c -0.218495,-0.0053 -0.435745,0.05111 -0.651416,0.169235 -0.263833,0.1445 -0.503607,0.395972 -0.623059,0.653586 -0.121994,0.263094 -0.117015,0.794123 0.01007,1.075964 0.180869,0.401058 0.604113,0.730167 1.010739,0.785955 0.402138,0.05518 0.680551,-0.0074 1.012742,-0.227871 0.24276,-0.16107 0.394151,-0.370342 0.5027,-0.694622 0.155163,-0.463537 0.05493,-0.921243 -0.295347,-1.348209 -0.02876,-0.03505 -0.167219,-0.130839 -0.307693,-0.212858 -0.220547,-0.128771 -0.440263,-0.195847 -0.658758,-0.20118 z"
     style="fill:#ffffff;fill-opacity:1" />
</svg>
